<svg width="90" height="64" viewBox="0 0 90 64" fill="none" xmlns="http://www.w3.org/2000/svg">
<g filter="url(#filter0_d)">
<path fill-rule="evenodd" clip-rule="evenodd" d="M24.6907 35.7777L47.424 23.2602C48.5163 22.6588 48.5163 21.1552 47.424 20.5537L24.6907 8.03626C23.5984 7.43483 22.2331 8.18662 22.2331 9.38951L22.2331 34.4244C22.2331 35.6273 23.5984 36.3791 24.6907 35.7777ZM51.5201 30.0264C58.0739 26.4178 58.0739 17.3962 51.5201 13.7875L28.7868 1.27007C22.2331 -2.33857 14.0409 2.17223 14.0409 9.38951L14.0409 34.4244C14.0409 41.6417 22.2331 46.1525 28.7868 42.5439L51.5201 30.0264Z" fill="#F5F5F5"/>
<path fill-rule="evenodd" clip-rule="evenodd" d="M45.1901 35.7777L67.6243 23.2602C68.7022 22.6588 68.7022 21.1552 67.6243 20.5537L45.1901 8.03626C44.1122 7.43483 42.7647 8.18662 42.7647 9.38951L42.7647 34.4244C42.7647 35.6273 44.1121 36.3791 45.1901 35.7777ZM71.6665 30.0264C78.134 26.4178 78.134 17.3962 71.6665 13.7875L49.2323 1.27007C42.7647 -2.33857 34.6804 2.17223 34.6804 9.38951L34.6804 34.4244C34.6804 41.6417 42.7648 46.1525 49.2323 42.5439L71.6665 30.0264Z" fill="#32CE18"/>
</g>
<g filter="url(#filter1_d)">
<path d="M4.19597 55.6172V50.3336L4 49.3677L4.19597 48.7785H7.11596C7.58629 48.7785 8.03703 48.8236 8.46817 48.9137C8.90584 48.9974 9.29452 49.1584 9.6342 49.3967C9.98042 49.6349 10.2515 49.9762 10.4475 50.4205C10.65 50.8649 10.7512 51.4412 10.7512 52.1495C10.7512 52.8579 10.65 53.4406 10.4475 53.8978C10.245 54.3486 9.97062 54.6995 9.6244 54.9507C9.27819 55.2018 8.88624 55.3757 8.44857 55.4723C8.01743 55.5689 7.57323 55.6172 7.11596 55.6172H4.19597ZM5.97932 54.0717H7.11596C7.69081 54.0717 8.13175 53.9236 8.43877 53.6274C8.7458 53.3247 8.89931 52.8321 8.89931 52.1495C8.89931 51.4669 8.74253 50.9936 8.42897 50.7296C8.12195 50.4592 7.68428 50.3239 7.11596 50.3239H5.97932V54.0717Z" fill="#F5F5F5"/>
<path d="M14.6925 55.7137C13.6865 55.7137 12.9288 55.4884 12.4192 55.0376C11.9162 54.5804 11.6647 53.8495 11.6647 52.845V50.3336L11.6745 49.358L11.6647 48.7785H13.4481V52.6518C13.4481 53.1026 13.5395 53.4696 13.7224 53.7529C13.9054 54.0298 14.2287 54.1683 14.6925 54.1683C15.1563 54.1683 15.4829 54.0395 15.6724 53.7819C15.8683 53.5179 15.9663 53.1412 15.9663 52.6518V48.7785H17.7203V52.845C17.7203 53.8302 17.472 54.5547 16.9756 55.0183C16.4857 55.4819 15.7246 55.7137 14.6925 55.7137Z" fill="#F5F5F5"/>
<path d="M20.4666 55.6172V50.3239L18.5069 50.4205V48.7785H24.2391V50.4205L22.2304 50.3239V54.0717L22.3382 55.0376L22.2304 55.6172H20.4666Z" fill="#F5F5F5"/>
<path d="M23.8824 55.6172L24.3527 53.9848V52.758L25.0778 52.4683L26.3516 48.7881H28.8895L30.4671 53.1154L31.2215 54.487V55.6172H29.4872L28.9973 54.0717H26.1459L25.7245 55.6172H23.8824ZM26.7926 52.5842H28.4583L27.7136 50.3722H27.5079L26.7926 52.5842Z" fill="#F5F5F5"/>
<path d="M34.453 55.6172V50.3336L34.257 49.3677L34.453 48.7785H37.373C37.8433 48.7785 38.2941 48.8236 38.7252 48.9137C39.1629 48.9974 39.5516 49.1584 39.8913 49.3967C40.2375 49.6349 40.5086 49.9762 40.7045 50.4205C40.907 50.8649 41.0083 51.4412 41.0083 52.1495C41.0083 52.8579 40.907 53.4406 40.7045 53.8978C40.502 54.3486 40.2277 54.6995 39.8815 54.9507C39.5352 55.2018 39.1433 55.3757 38.7056 55.4723C38.2745 55.5689 37.8303 55.6172 37.373 55.6172H34.453ZM36.2364 54.0717H37.373C37.9479 54.0717 38.3888 53.9236 38.6958 53.6274C39.0028 53.3247 39.1564 52.8321 39.1564 52.1495C39.1564 51.4669 38.9996 50.9936 38.686 50.7296C38.379 50.4592 37.9413 50.3239 37.373 50.3239H36.2364V54.0717Z" fill="#F5F5F5"/>
<path d="M42.1847 55.6172V50.3336L41.9888 49.358L42.1847 48.7785H45.3203C45.7972 48.7785 46.225 48.8525 46.6039 49.0006C46.9893 49.1423 47.2931 49.387 47.5152 49.7347C47.7438 50.076 47.8581 50.5493 47.8581 51.1546C47.8581 51.702 47.7569 52.1463 47.5544 52.4876C47.3519 52.8224 47.071 53.0736 46.7117 53.241L46.8097 53.3473L47.7797 54.545L48.3383 55.0376V55.6172H46.1336L44.7618 53.5598H43.9485V54.062L44.0465 55.028L43.9485 55.6172H42.1847ZM43.9485 52.0433H44.9088C45.2484 52.0433 45.5195 51.9821 45.722 51.8597C45.9245 51.731 46.0258 51.4959 46.0258 51.1546C46.0258 50.9164 45.9768 50.7393 45.8788 50.6234C45.7808 50.501 45.6436 50.4205 45.4673 50.3819C45.2974 50.3433 45.0982 50.3239 44.8696 50.3239H43.8505L43.9485 52.0433Z" fill="#F5F5F5"/>
<path d="M52.052 55.7137C51.6339 55.7137 51.2257 55.6655 50.8272 55.5689C50.4352 55.4658 50.0792 55.2855 49.7591 55.028C49.4456 54.7704 49.1941 54.413 49.0047 53.9558C48.8217 53.4986 48.7303 52.9126 48.7303 52.1978C48.7303 51.483 48.8217 50.8971 49.0047 50.4399C49.1941 49.9827 49.4456 49.6253 49.7591 49.3677C50.0792 49.1101 50.4352 48.933 50.8272 48.8364C51.2257 48.7334 51.6339 48.6819 52.052 48.6819C52.4701 48.6819 52.8751 48.7334 53.267 48.8364C53.6655 48.9395 54.0215 49.1198 54.3351 49.3773C54.6552 49.6349 54.9067 49.9923 55.0896 50.4495C55.279 50.9067 55.3737 51.4895 55.3737 52.1978C55.3737 52.9062 55.279 53.4889 55.0896 53.9461C54.9067 54.4033 54.6552 54.7607 54.3351 55.0183C54.0215 55.2759 53.6655 55.4562 53.267 55.5592C52.8751 55.6622 52.4701 55.7137 52.052 55.7137ZM52.052 54.0717C52.5354 54.0717 52.9012 53.93 53.1495 53.6467C53.3977 53.3634 53.5218 52.8804 53.5218 52.1978C53.5218 51.5152 53.3977 51.0323 53.1495 50.7489C52.9012 50.4656 52.5354 50.3239 52.052 50.3239C51.5752 50.3239 51.2126 50.4688 50.9644 50.7586C50.7161 51.0484 50.592 51.5281 50.592 52.1978C50.592 52.8675 50.7161 53.3473 50.9644 53.637C51.2126 53.9268 51.5752 54.0717 52.052 54.0717Z" fill="#F5F5F5"/>
<path d="M56.5477 55.6172V50.3336L56.3518 49.358L56.5477 48.7785H59.6833C60.1602 48.7785 60.588 48.8525 60.9669 49.0006C61.3523 49.1423 61.6561 49.387 61.8782 49.7347C62.1068 50.076 62.2211 50.5493 62.2211 51.1546C62.2211 51.7599 62.1003 52.2397 61.8586 52.5938C61.6169 52.9416 61.2805 53.1895 60.8493 53.3376C60.4247 53.4857 59.9381 53.5598 59.3893 53.5598H58.3115V54.062L58.4095 55.028L58.3115 55.6172H56.5477ZM58.3115 52.0433H59.2718C59.6114 52.0433 59.8825 51.9821 60.085 51.8597C60.2875 51.731 60.3888 51.4959 60.3888 51.1546C60.3888 50.9164 60.3398 50.7393 60.2418 50.6234C60.1438 50.501 60.0067 50.4205 59.8303 50.3819C59.6604 50.3433 59.4612 50.3239 59.2326 50.3239H58.2135L58.3115 52.0433Z" fill="#F5F5F5"/>
<path d="M65.7485 55.7137C65.3892 55.7137 65.0495 55.6816 64.7294 55.6172C64.4093 55.5463 64.1317 55.4626 63.8966 55.366C63.6614 55.2694 63.4883 55.1793 63.3772 55.0956V53.3666C63.6908 53.5404 64.086 53.7046 64.5629 53.8592C65.0397 54.0073 65.5688 54.0814 66.1502 54.0814C66.3854 54.0814 66.5585 54.0524 66.6696 53.9944C66.7871 53.93 66.8459 53.8206 66.8459 53.666C66.8459 53.4986 66.7153 53.3601 66.454 53.2507C66.1992 53.1348 65.7942 52.9931 65.239 52.8257C64.8078 52.6904 64.4387 52.5423 64.1317 52.3813C63.8312 52.2139 63.5993 52.0079 63.436 51.7632C63.2792 51.512 63.2008 51.1933 63.2008 50.8069C63.2008 50.4077 63.3054 50.047 63.5144 49.7251C63.7234 49.4031 64.0501 49.1487 64.4943 48.962C64.9385 48.7753 65.5068 48.6819 66.1992 48.6819C66.4083 48.6819 66.6304 48.6915 66.8655 48.7109C67.1072 48.7237 67.2999 48.7431 67.4436 48.7688L68.5509 49.5705L68.1687 50.7489L65.8465 50.1211C65.5787 50.1211 65.3794 50.1758 65.2488 50.2853C65.1246 50.3948 65.0626 50.5268 65.0626 50.6813C65.0626 50.8681 65.1704 51.0162 65.3859 51.1257C65.6015 51.2351 65.9118 51.3446 66.3168 51.4541C66.957 51.6279 67.4534 51.8211 67.8062 52.0336C68.1589 52.2461 68.4072 52.4876 68.5509 52.758C68.6946 53.0221 68.7665 53.3215 68.7665 53.6564C68.7665 54.2745 68.515 54.7736 68.012 55.1535C67.509 55.527 66.7545 55.7137 65.7485 55.7137Z" fill="#F5F5F5"/>
<path d="M69.8463 55.6172V50.3336L69.7483 49.3677L69.8463 48.7785H71.6101V51.3961H74.0499V48.7785H75.8137V52.4103L75.9116 53.0768V55.6172H74.0499V53.0671H71.6101V53.6467L71.708 55.6172H69.8463Z" fill="#F5F5F5"/>
<path d="M77.1857 55.6172V50.3239L77.0877 49.358L77.1857 48.7785H78.9592V55.6172H77.1857Z" fill="#F5F5F5"/>
<path d="M80.3266 55.6172V50.3336L80.1306 49.358L80.3266 48.7785H83.4622C83.939 48.7785 84.3669 48.8525 84.7458 49.0006C85.1312 49.1423 85.435 49.387 85.6571 49.7347C85.8857 50.076 86 50.5493 86 51.1546C86 51.7599 85.8792 52.2397 85.6375 52.5938C85.3958 52.9416 85.0593 53.1895 84.6282 53.3376C84.2036 53.4857 83.7169 53.5598 83.1682 53.5598H82.0904V54.062L82.1883 55.028L82.0904 55.6172H80.3266ZM82.0904 52.0433H83.0506C83.3903 52.0433 83.6614 51.9821 83.8639 51.8597C84.0664 51.731 84.1677 51.4959 84.1677 51.1546C84.1677 50.9164 84.1187 50.7393 84.0207 50.6234C83.9227 50.501 83.7855 50.4205 83.6091 50.3819C83.4393 50.3433 83.2401 50.3239 83.0114 50.3239H81.9924L82.0904 52.0433Z" fill="#F5F5F5"/>
</g>
<defs>
<filter id="filter0_d" x="10.0409" y="0" width="70.4761" height="51.8139" filterUnits="userSpaceOnUse" color-interpolation-filters="sRGB">
<feFlood flood-opacity="0" result="BackgroundImageFix"/>
<feColorMatrix in="SourceAlpha" type="matrix" values="0 0 0 0 0 0 0 0 0 0 0 0 0 0 0 0 0 0 127 0"/>
<feOffset dy="4"/>
<feGaussianBlur stdDeviation="2"/>
<feColorMatrix type="matrix" values="0 0 0 0 0 0 0 0 0 0 0 0 0 0 0 0 0 0 0.25 0"/>
<feBlend mode="normal" in2="BackgroundImageFix" result="effect1_dropShadow"/>
<feBlend mode="normal" in="SourceGraphic" in2="effect1_dropShadow" result="shape"/>
</filter>
<filter id="filter1_d" x="0" y="48.6819" width="90" height="15.0319" filterUnits="userSpaceOnUse" color-interpolation-filters="sRGB">
<feFlood flood-opacity="0" result="BackgroundImageFix"/>
<feColorMatrix in="SourceAlpha" type="matrix" values="0 0 0 0 0 0 0 0 0 0 0 0 0 0 0 0 0 0 127 0"/>
<feOffset dy="4"/>
<feGaussianBlur stdDeviation="2"/>
<feColorMatrix type="matrix" values="0 0 0 0 0 0 0 0 0 0 0 0 0 0 0 0 0 0 0.25 0"/>
<feBlend mode="normal" in2="BackgroundImageFix" result="effect1_dropShadow"/>
<feBlend mode="normal" in="SourceGraphic" in2="effect1_dropShadow" result="shape"/>
</filter>
</defs>
</svg>
